Metro.ufo
<glyph name="parenleft" format="1">
  <advance width="319"/>
  <unicode hex="0028"/>
  <outline>
    <contour>
      <point x="189" y="671" type="curve"/>
      <point x="266" y="624" type="line"/>
      <point x="95" y="346"/>
      <point x="93" y="70"/>
      <point x="269" y="-228" type="curve"/>
      <point x="191" y="-274" type="line"/>
      <point x="2" y="46"/>
      <point x="4" y="369"/>
    </contour>
  </outline>
</glyph>
<glyph name="parenright" format="1">
  <advance width="319"/>
  <unicode hex="0029"/>
  <outline>
    <contour>
      <point x="130" y="671" type="line"/>
      <point x="315" y="369"/>
      <point x="317" y="46"/>
      <point x="128" y="-274" type="curve"/>
      <point x="50" y="-228" type="line"/>
      <point x="226" y="70"/>
      <point x="224" y="346"/>
      <point x="53" y="624" type="curve"/>
    </contour>
  </outline>
</glyph>
<glyph name="bracketleft" format="1">
  <advance width="266"/>
  <unicode hex="005B"/>
  <outline>
    <contour>
      <point x="51" y="646" type="line"/>
      <point x="96" y="646" type="line"/>
      <point x="214" y="646" type="line"/>
      <point x="214" y="556" type="line"/>
      <point x="140" y="556" type="line"/>
      <point x="140" y="-163" type="line"/>
      <point x="172" y="-163"/>
      <point x="206" y="-163"/>
      <point x="216" y="-163" type="curve"/>
      <point x="214" y="-253" type="line"/>
      <point x="211" y="-253"/>
      <point x="101" y="-253"/>
      <point x="97" y="-253" type="curve" smooth="yes"/>
      <point x="50" y="-255" type="line"/>
      <point x="50" y="-208" type="line"/>
      <point x="50" y="601" type="line"/>
    </contour>
  </outline>
</glyph>
<glyph name="bracketright" format="1">
  <advance width="266"/>
  <unicode hex="005D"/>
  <outline>
    <contour>
      <point x="216" y="650" type="line"/>
      <point x="216" y="604" type="line"/>
      <point x="216" y="-204" type="line"/>
      <point x="216" y="-249" type="line"/>
      <point x="171" y="-249" type="line"/>
      <point x="52" y="-249" type="line"/>
      <point x="52" y="-159" type="line"/>
      <point x="126" y="-159" type="line"/>
      <point x="126" y="558" type="line"/>
      <point x="94" y="558"/>
      <point x="60" y="559"/>
      <point x="50" y="559" type="curve"/>
      <point x="53" y="649" type="line"/>
      <point x="56" y="649"/>
      <point x="166" y="649"/>
      <point x="170" y="649" type="curve" smooth="yes"/>
    </contour>
  </outline>
</glyph>
<glyph name="braceleft" format="1">
  <advance width="341"/>
  <unicode hex="007B"/>
  <outline>
    <contour>
      <point x="290" y="650" type="curve" smooth="yes"/>
      <point x="289" y="560" type="line"/>
      <point x="254" y="560"/>
      <point x="239" y="554"/>
      <point x="231" y="546" type="curve" smooth="yes"/>
      <point x="223" y="538"/>
      <point x="215" y="521"/>
      <point x="215" y="484" type="curve" smooth="yes"/>
      <point x="215" y="316" type="line"/>
      <point x="215" y="315" type="line" smooth="yes"/>
      <point x="215" y="271"/>
      <point x="202" y="233"/>
      <point x="178" y="205" type="curve"/>
      <point x="200" y="184"/>
      <point x="214" y="152"/>
      <point x="215" y="119" type="curve" smooth="yes"/>
      <point x="215" y="118" type="line"/>
      <point x="214" y="-88" type="line" smooth="yes"/>
      <point x="214" y="-120"/>
      <point x="222" y="-136"/>
      <point x="232" y="-145" type="curve" smooth="yes"/>
      <point x="242" y="-154"/>
      <point x="259" y="-160"/>
      <point x="290" y="-160" type="curve"/>
      <point x="291" y="-250" type="line"/>
      <point x="246" y="-251"/>
      <point x="202" y="-239"/>
      <point x="171" y="-210" type="curve" smooth="yes"/>
      <point x="140" y="-181"/>
      <point x="124" y="-137"/>
      <point x="124" y="-88" type="curve" smooth="yes"/>
      <point x="125" y="117" type="line" smooth="yes"/>
      <point x="125" y="136"/>
      <point x="123" y="137"/>
      <point x="113" y="143" type="curve" smooth="yes"/>
      <point x="103" y="149"/>
      <point x="81" y="155"/>
      <point x="51" y="155" type="curve" smooth="yes"/>
      <point x="50" y="155" type="line" smooth="yes"/>
      <point x="51" y="245" type="line" smooth="yes"/>
      <point x="79" y="245"/>
      <point x="97" y="251"/>
      <point x="107" y="260" type="curve" smooth="yes"/>
      <point x="117" y="269"/>
      <point x="125" y="283"/>
      <point x="125" y="316" type="curve" smooth="yes"/>
      <point x="125" y="484" type="line" smooth="yes"/>
      <point x="125" y="533"/>
      <point x="136" y="578"/>
      <point x="167" y="609" type="curve" smooth="yes"/>
      <point x="198" y="640"/>
      <point x="242" y="651"/>
    </contour>
  </outline>
</glyph>
<glyph name="braceright" format="1">
  <advance width="341"/>
  <unicode hex="007D"/>
  <outline>
    <contour>
      <point x="51" y="650" type="line"/>
      <point x="99" y="651"/>
      <point x="143" y="639"/>
      <point x="174" y="608" type="curve" smooth="yes"/>
      <point x="205" y="577"/>
      <point x="215" y="533"/>
      <point x="215" y="484" type="curve" smooth="yes"/>
      <point x="215" y="316" type="line"/>
      <point x="215" y="315" type="line" smooth="yes"/>
      <point x="215" y="282"/>
      <point x="224" y="269"/>
      <point x="234" y="260" type="curve" smooth="yes"/>
      <point x="244" y="251"/>
      <point x="262" y="245"/>
      <point x="290" y="245" type="curve" smooth="yes"/>
      <point x="291" y="155" type="line" smooth="yes"/>
      <point x="290" y="155" type="line" smooth="yes"/>
      <point x="259" y="155"/>
      <point x="238" y="149"/>
      <point x="228" y="143" type="curve" smooth="yes"/>
      <point x="218" y="137"/>
      <point x="215" y="136"/>
      <point x="215" y="117" type="curve" smooth="yes"/>
      <point x="215" y="116" type="line" smooth="yes"/>
      <point x="216" y="-88" type="line"/>
      <point x="216" y="-137"/>
      <point x="201" y="-181"/>
      <point x="170" y="-210" type="curve" smooth="yes"/>
      <point x="139" y="-239"/>
      <point x="95" y="-252"/>
      <point x="50" y="-251" type="curve"/>
      <point x="51" y="-161" type="line"/>
      <point x="82" y="-161"/>
      <point x="99" y="-154"/>
      <point x="109" y="-145" type="curve" smooth="yes"/>
      <point x="119" y="-136"/>
      <point x="126" y="-120"/>
      <point x="126" y="-88" type="curve" smooth="yes"/>
      <point x="125" y="117" type="line"/>
      <point x="125" y="118" type="line"/>
      <point x="126" y="119" type="line"/>
      <point x="127" y="152"/>
      <point x="140" y="184"/>
      <point x="162" y="205" type="curve"/>
      <point x="138" y="233"/>
      <point x="125" y="271"/>
      <point x="125" y="315" type="curve" smooth="yes"/>
      <point x="125" y="484" type="line" smooth="yes"/>
      <point x="125" y="521"/>
      <point x="118" y="537"/>
      <point x="110" y="545" type="curve" smooth="yes"/>
      <point x="102" y="553"/>
      <point x="87" y="560"/>
      <point x="52" y="560" type="curve"/>
    </contour>
  </outline>
</glyph>
<glyph name="uni0621" format="1">
  <advance width="284"/>
  <unicode hex="0621"/>
  <outline>
    <contour>
      <point x="234" y="200" type="line"/>
      <point x="234" y="134" type="line"/>
      <point x="164" y="134" type="line"/>
      <point x="206" y="46" type="line" smooth="yes"/>
      <point x="217" y="24"/>
      <point x="198" y="0"/>
      <point x="176" y="0" type="curve" smooth="yes"/>
      <point x="50" y="0" type="line"/>
      <point x="50" y="66" type="line"/>
      <point x="125" y="66" type="line"/>
      <point x="84" y="154" type="line" smooth="yes"/>
      <point x="73" y="176"/>
      <point x="92" y="200"/>
      <point x="114" y="200" type="curve" smooth="yes"/>
    </contour>
  </outline>
</glyph>
<glyph name="uni0627" format="1">
  <advance width="191"/>
  <unicode hex="0627"/>
  <outline>
    <contour>
      <point x="50" y="560" type="line"/>
      <point x="141" y="560" type="line"/>
      <point x="140" y="89" type="line"/>
      <point x="50" y="89" type="line"/>
    </contour>
    <contour>
      <point x="50" y="0" type="curve"/>
      <point x="50" y="90" type="line"/>
      <point x="140" y="90" type="line"/>
      <point x="140" y="42"/>
      <point x="98" y="0"/>
    </contour>
  </outline>
</glyph>
<glyph name="uni062D" format="1">
  <advance width="497"/>
  <unicode hex="062D"/>
  <outline>
    <contour>
      <point x="166" y="0" type="line" smooth="yes"/>
      <point x="152" y="0"/>
      <point x="140" y="-11"/>
      <point x="140" y="-23" type="curve" smooth="yes"/>
      <point x="140" y="-134" type="line" smooth="yes"/>
      <point x="140" y="-149"/>
      <point x="146" y="-157"/>
      <point x="166" y="-157" type="curve" smooth="yes"/>
      <point x="166" y="-157"/>
      <point x="303" y="-157"/>
      <point x="371" y="-157" type="curve"/>
      <point x="371" y="-247" type="line"/>
      <point x="166" y="-247" type="line" smooth="yes"/>
      <point x="103" y="-248"/>
      <point x="50" y="-196"/>
      <point x="50" y="-134" type="curve" smooth="yes"/>
      <point x="50" y="-23" type="line" smooth="yes"/>
      <point x="50" y="42"/>
      <point x="93" y="90"/>
      <point x="166" y="90" type="curve" smooth="yes"/>
      <point x="335" y="90" type="line" smooth="yes"/>
      <point x="316" y="90"/>
      <point x="288" y="114"/>
      <point x="237" y="178" type="curve" smooth="yes"/>
      <point x="211" y="211"/>
      <point x="152" y="262"/>
      <point x="98" y="274" type="curve"/>
      <point x="138" y="350" type="line"/>
      <point x="198" y="350"/>
      <point x="271" y="279"/>
      <point x="299" y="242" type="curve" smooth="yes"/>
      <point x="340" y="188"/>
      <point x="376" y="140"/>
      <point x="425" y="136" type="curve"/>
      <point x="447" y="136" type="line"/>
      <point x="447" y="80" type="line" smooth="yes"/>
      <point x="447" y="32"/>
      <point x="434" y="0"/>
      <point x="389" y="0" type="curve" smooth="yes"/>
    </contour>
  </outline>
</glyph>
<glyph name="uni062F" format="1">
  <advance width="413"/>
  <unicode hex="062F"/>
  <outline>
    <contour>
      <point x="179" y="321" type="line"/>
      <point x="260" y="283"/>
      <point x="308" y="237"/>
      <point x="334" y="193" type="curve" smooth="yes"/>
      <point x="360" y="149"/>
      <point x="363" y="108"/>
      <point x="363" y="88" type="curve" smooth="yes"/>
      <point x="363" y="63"/>
      <point x="354" y="38"/>
      <point x="335" y="21" type="curve" smooth="yes"/>
      <point x="316" y="4"/>
      <point x="293" y="0"/>
      <point x="273" y="0" type="curve" smooth="yes"/>
      <point x="50" y="0" type="line"/>
      <point x="50" y="90" type="line"/>
      <point x="273" y="90" type="line" smooth="yes"/>
      <point x="273" y="101"/>
      <point x="272" y="121"/>
      <point x="257" y="147" type="curve" smooth="yes"/>
      <point x="241" y="173"/>
      <point x="210" y="207"/>
      <point x="141" y="239" type="curve"/>
    </contour>
  </outline>
</glyph>
<glyph name="uni0631" format="1">
  <advance width="349"/>
  <unicode hex="0631"/>
  <outline>
    <contour>
      <point x="299" y="160" type="line"/>
      <point x="299" y="1" type="line" smooth="yes"/>
      <point x="299" y="-39"/>
      <point x="286" y="-82"/>
      <point x="256" y="-116" type="curve" smooth="yes"/>
      <point x="226" y="-150"/>
      <point x="178" y="-172"/>
      <point x="120" y="-170" type="curve"/>
      <point x="50" y="-170" type="line"/>
      <point x="50" y="-80" type="line"/>
      <point x="120" y="-80" type="line"/>
      <point x="121" y="-80" type="line"/>
      <point x="122" y="-80" type="line" smooth="yes"/>
      <point x="158" y="-82"/>
      <point x="176" y="-71"/>
      <point x="189" y="-56" type="curve" smooth="yes"/>
      <point x="202" y="-41"/>
      <point x="209" y="-20"/>
      <point x="209" y="1" type="curve" smooth="yes"/>
      <point x="209" y="160" type="line"/>
    </contour>
  </outline>
</glyph>
<glyph name="uni0633" format="1">
  <advance width="817"/>
  <unicode hex="0633"/>
  <outline>
    <contour>
      <point x="677" y="320" type="line"/>
      <point x="767" y="320" type="line"/>
      <point x="767" y="89" type="line" smooth="yes"/>
      <point x="767" y="41"/>
      <point x="725" y="0"/>
      <point x="677" y="0" type="curve" smooth="yes"/>
      <point x="607" y="0" type="line"/>
      <point x="607" y="90" type="line"/>
      <point x="677" y="90" type="line"/>
    </contour>
    <contour>
      <point x="521" y="320" type="line"/>
      <point x="611" y="320" type="line"/>
      <point x="611" y="89" type="line" smooth="yes"/>
      <point x="611" y="41"/>
      <point x="569" y="0"/>
      <point x="521" y="0" type="curve" smooth="yes"/>
      <point x="451" y="0" type="line"/>
      <point x="451" y="90" type="line"/>
      <point x="521" y="90" type="line"/>
    </contour>
    <contour>
      <point x="365" y="322" type="line"/>
      <point x="455" y="322" type="line"/>
      <point x="455" y="-82" type="line" smooth="yes"/>
      <point x="455" y="-130"/>
      <point x="413" y="-170"/>
      <point x="365" y="-170" type="curve" smooth="yes"/>
      <point x="138" y="-169" type="line" smooth="yes"/>
      <point x="88" y="-169"/>
      <point x="52" y="-129"/>
      <point x="52" y="-77" type="curve" smooth="yes"/>
      <point x="52" y="160" type="line"/>
      <point x="142" y="160" type="line"/>
      <point x="142" y="-79" type="line"/>
      <point x="365" y="-79" type="line"/>
    </contour>
  </outline>
</glyph>
<glyph name="uni0635" format="1">
  <advance width="893"/>
  <unicode hex="0635"/>
  <outline>
    <contour>
      <point x="365" y="236" type="line"/>
      <point x="455" y="236" type="line"/>
      <point x="455" y="-82" type="line" smooth="yes"/>
      <point x="455" y="-130"/>
      <point x="413" y="-170"/>
      <point x="365" y="-170" type="curve" smooth="yes"/>
      <point x="138" y="-169" type="line" smooth="yes"/>
      <point x="88" y="-169"/>
      <point x="52" y="-129"/>
      <point x="52" y="-77" type="curve" smooth="yes"/>
      <point x="52" y="160" type="line"/>
      <point x="142" y="160" type="line"/>
      <point x="142" y="-79" type="line"/>
      <point x="365" y="-79" type="line"/>
    </contour>
    <contour>
      <point x="693" y="323" type="curve" smooth="yes"/>
      <point x="710" y="323"/>
      <point x="733" y="321"/>
      <point x="748" y="313" type="curve" smooth="yes"/>
      <point x="808" y="288"/>
      <point x="838" y="230"/>
      <point x="840" y="148" type="curve"/>
      <point x="840" y="91" type="line" smooth="yes"/>
      <point x="840" y="41"/>
      <point x="797" y="0"/>
      <point x="749" y="0" type="curve" smooth="yes"/>
      <point x="411" y="0" type="line"/>
      <point x="411" y="90" type="line"/>
      <point x="425" y="90" type="line"/>
      <point x="468" y="149"/>
      <point x="511" y="212"/>
      <point x="560" y="258" type="curve" smooth="yes"/>
      <point x="585" y="282"/>
      <point x="612" y="301"/>
      <point x="643" y="313" type="curve" smooth="yes"/>
      <point x="659" y="319"/>
      <point x="676" y="323"/>
    </contour>
    <contour>
      <point x="750" y="145" type="curve" smooth="yes"/>
      <point x="748" y="196"/>
      <point x="740" y="233"/>
      <point x="695" y="233" type="curve" smooth="yes"/>
      <point x="689" y="233"/>
      <point x="682" y="232"/>
      <point x="675" y="229" type="curve" smooth="yes"/>
      <point x="660" y="223"/>
      <point x="642" y="211"/>
      <point x="622" y="192" type="curve" smooth="yes"/>
      <point x="595" y="167"/>
      <point x="567" y="130"/>
      <point x="537" y="90" type="curve"/>
      <point x="750" y="90" type="line"/>
      <point x="750" y="108"/>
      <point x="750" y="127"/>
    </contour>
  </outline>
</glyph>
<glyph name="uni0637" format="1">
  <advance width="586"/>
  <unicode hex="0637"/>
  <outline>
    <contour>
      <point x="138" y="560" type="line"/>
      <point x="228" y="560" type="line"/>
      <point x="228" y="261" type="line" smooth="yes"/>
      <point x="228" y="239"/>
      <point x="219" y="222"/>
      <point x="219" y="222" type="curve"/>
      <point x="219" y="222"/>
      <point x="244.496" y="250.017"/>
      <point x="253" y="258" type="curve" smooth="yes"/>
      <point x="278" y="282"/>
      <point x="305" y="301"/>
      <point x="336" y="313" type="curve" smooth="yes"/>
      <point x="352" y="319"/>
      <point x="369" y="323"/>
      <point x="386" y="323" type="curve" smooth="yes"/>
      <point x="403" y="323"/>
      <point x="426" y="321"/>
      <point x="441" y="313" type="curve"/>
      <point x="501" y="288"/>
      <point x="531" y="230"/>
      <point x="533" y="148" type="curve"/>
      <point x="533" y="91" type="line" smooth="yes"/>
      <point x="533" y="41"/>
      <point x="490" y="0"/>
      <point x="442" y="0" type="curve" smooth="yes"/>
      <point x="50" y="0" type="line"/>
      <point x="50" y="90" type="line"/>
      <point x="118" y="90" type="line"/>
      <point x="132.705" y="110.177"/>
      <point x="138" y="119.897"/>
      <point x="138" y="158" type="curve" smooth="yes"/>
    </contour>
    <contour>
      <point x="443" y="145" type="curve" smooth="yes"/>
      <point x="441" y="196"/>
      <point x="433" y="233"/>
      <point x="388" y="233" type="curve" smooth="yes"/>
      <point x="382" y="233"/>
      <point x="375" y="232"/>
      <point x="368" y="229" type="curve" smooth="yes"/>
      <point x="353" y="223"/>
      <point x="335" y="211"/>
      <point x="315" y="192" type="curve" smooth="yes"/>
      <point x="288" y="167"/>
      <point x="260" y="130"/>
      <point x="230" y="90" type="curve"/>
      <point x="443" y="90" type="line"/>
      <point x="443" y="108"/>
      <point x="443" y="127"/>
    </contour>
  </outline>
</glyph>
<glyph name="uni0639" format="1">
  <advance width="421"/>
  <unicode hex="0639"/>
  <outline>
    <contour>
      <point x="190" y="31" type="line"/>
      <point x="157" y="68"/>
      <point x="128" y="108"/>
      <point x="110" y="154" type="curve" smooth="yes"/>
      <point x="94" y="198"/>
      <point x="97" y="266"/>
      <point x="125" y="299" type="curve" smooth="yes"/>
      <point x="153" y="332"/>
      <point x="194" y="346"/>
      <point x="240" y="348" type="curve" smooth="yes"/>
      <point x="279" y="350"/>
      <point x="323" y="345"/>
      <point x="371" y="332" type="curve"/>
      <point x="371" y="238" type="line"/>
      <point x="320" y="254"/>
      <point x="276" y="260"/>
      <point x="245" y="258" type="curve" smooth="yes"/>
      <point x="192" y="255"/>
      <point x="174" y="241"/>
      <point x="194" y="184" type="curve" smooth="yes"/>
      <point x="202" y="162"/>
      <point x="234" y="114"/>
      <point x="267" y="82" type="curve"/>
    </contour>
    <contour>
      <point x="371" y="0" type="line"/>
      <point x="166" y="0" type="line" smooth="yes"/>
      <point x="152" y="0"/>
      <point x="140" y="-11"/>
      <point x="140" y="-23" type="curve" smooth="yes"/>
      <point x="140" y="-134" type="line" smooth="yes"/>
      <point x="140" y="-149"/>
      <point x="146" y="-157"/>
      <point x="166" y="-157" type="curve" smooth="yes"/>
      <point x="371" y="-157" type="line"/>
      <point x="371" y="-247" type="line"/>
      <point x="166" y="-247" type="line"/>
      <point x="103" y="-248"/>
      <point x="50" y="-196"/>
      <point x="50" y="-134" type="curve" smooth="yes"/>
      <point x="50" y="-23" type="line" smooth="yes"/>
      <point x="50" y="42"/>
      <point x="93" y="90"/>
      <point x="166" y="90" type="curve" smooth="yes"/>
      <point x="371" y="90" type="line"/>
    </contour>
  </outline>
</glyph>
<glyph name="uni0643" format="1">
  <advance width="510"/>
  <unicode hex="0643"/>
  <outline>
    <contour>
      <point x="370" y="560" type="line"/>
      <point x="460" y="560" type="line"/>
      <point x="460" y="89" type="line" smooth="yes"/>
      <point x="460" y="41"/>
      <point x="418" y="0"/>
      <point x="370" y="0" type="curve" smooth="yes"/>
      <point x="98" y="0" type="line"/>
      <point x="98" y="90" type="line"/>
      <point x="370" y="90" type="line" smooth="yes"/>
    </contour>
    <contour>
      <point x="50" y="90" type="line"/>
      <point x="108" y="90" type="line"/>
      <point x="108" y="0" type="line"/>
      <point x="98" y="0" type="line"/>
    </contour>
    <component base="smallhamza" xOffset="216" yOffset="238"/>
  </outline>
</glyph>
<glyph name="uni0644" format="1">
  <advance width="502"/>
  <unicode hex="0644"/>
  <outline>
    <contour>
      <point x="362" y="560" type="line"/>
      <point x="452" y="560" type="line"/>
      <point x="452" y="-71" type="line" smooth="yes"/>
      <point x="452" y="-119"/>
      <point x="411" y="-160"/>
      <point x="363" y="-160" type="curve" smooth="yes"/>
      <point x="140" y="-160" type="line" smooth="yes"/>
      <point x="92" y="-160"/>
      <point x="50" y="-118"/>
      <point x="50" y="-70" type="curve" smooth="yes"/>
      <point x="50" y="90" type="line"/>
      <point x="140" y="90" type="line"/>
      <point x="140" y="-70" type="line"/>
      <point x="362" y="-70" type="line"/>
    </contour>
  </outline>
</glyph>
<glyph name="uni0645" format="1">
  <advance width="586"/>
  <unicode hex="0645"/>
  <outline>
    <contour>
      <point x="50" y="90" type="curve"/>
      <point x="140" y="90" type="line"/>
      <point x="140" y="0" type="line"/>
      <point x="92" y="0"/>
      <point x="50" y="42"/>
    </contour>
    <contour>
      <point x="356" y="332" type="curve" smooth="yes"/>
      <point x="436" y="332"/>
      <point x="488" y="274"/>
      <point x="516" y="215" type="curve" smooth="yes"/>
      <point x="534" y="177"/>
      <point x="546" y="131"/>
      <point x="526" y="86" type="curve"/>
      <point x="527" y="86" type="line"/>
      <point x="526" y="85" type="line"/>
      <point x="505" y="37"/>
      <point x="458" y="12"/>
      <point x="418" y="5" type="curve" smooth="yes"/>
      <point x="378" y="-2"/>
      <point x="339" y="1"/>
      <point x="310" y="0" type="curve"/>
      <point x="308" y="66" type="line"/>
      <point x="297" y="29"/>
      <point x="262" y="0"/>
      <point x="222" y="0" type="curve" smooth="yes"/>
      <point x="139" y="0" type="line"/>
      <point x="139" y="90" type="line"/>
      <point x="222" y="90" type="line"/>
      <point x="223" y="203" type="line" smooth="yes"/>
      <point x="223" y="275"/>
      <point x="283" y="332"/>
    </contour>
    <contour>
      <point x="393" y="230" type="curve" smooth="yes"/>
      <point x="355" y="254"/>
      <point x="319" y="244"/>
      <point x="313" y="199" type="curve"/>
      <point x="312" y="90" type="line"/>
      <point x="312" y="90"/>
      <point x="379" y="90"/>
      <point x="402" y="94" type="curve" smooth="yes"/>
      <point x="421" y="97"/>
      <point x="440" y="103"/>
      <point x="444" y="123" type="curve" smooth="yes"/>
      <point x="452" y="168"/>
      <point x="407" y="222"/>
    </contour>
  </outline>
</glyph>
<glyph name="uni0647" format="1">
  <advance width="420"/>
  <unicode hex="0647"/>
  <outline>
    <contour>
      <point x="212" y="350" type="curve"/>
      <point x="297" y="319" type="line"/>
      <point x="296" y="316"/>
      <point x="294" y="312"/>
      <point x="293" y="309" type="curve"/>
      <point x="370" y="309" type="line"/>
      <point x="370" y="89" type="line" smooth="yes"/>
      <point x="370" y="64"/>
      <point x="360" y="40"/>
      <point x="343" y="24" type="curve" smooth="yes"/>
      <point x="327" y="9"/>
      <point x="303" y="0"/>
      <point x="280" y="0" type="curve" smooth="yes"/>
      <point x="163" y="0" type="line" smooth="yes"/>
      <point x="97" y="0"/>
      <point x="65" y="45"/>
      <point x="55" y="80" type="curve" smooth="yes"/>
      <point x="30" y="169"/>
      <point x="105" y="210"/>
      <point x="144" y="244" type="curve" smooth="yes"/>
      <point x="167" y="263"/>
      <point x="189" y="288"/>
    </contour>
    <contour>
      <point x="280" y="281" type="line"/>
      <point x="256" y="230"/>
      <point x="228" y="197"/>
      <point x="202" y="175" type="curve" smooth="yes"/>
      <point x="170" y="148"/>
      <point x="151" y="138"/>
      <point x="144" y="126" type="curve" smooth="yes"/>
      <point x="136" y="113"/>
      <point x="137" y="90"/>
      <point x="166" y="90" type="curve" smooth="yes"/>
      <point x="280" y="90" type="line" smooth="yes"/>
    </contour>
  </outline>
</glyph>
<glyph name="uni0648" format="1">
  <advance width="424"/>
  <unicode hex="0648"/>
  <outline>
    <contour>
      <point x="374" y="0" type="line" smooth="yes"/>
      <point x="374" y="-107"/>
      <point x="301" y="-170"/>
      <point x="195" y="-170" type="curve" smooth="yes"/>
      <point x="50" y="-170" type="line"/>
      <point x="50" y="-80" type="line"/>
      <point x="195" y="-80" type="line" smooth="yes"/>
      <point x="253" y="-80"/>
      <point x="284" y="-53"/>
      <point x="284" y="0" type="curve"/>
      <point x="248" y="0"/>
      <point x="215" y="-3"/>
      <point x="180" y="2" type="curve" smooth="yes"/>
      <point x="140" y="8"/>
      <point x="96" y="34"/>
      <point x="74" y="79" type="curve"/>
      <point x="53" y="125"/>
      <point x="66" y="171"/>
      <point x="84" y="209" type="curve" smooth="yes"/>
      <point x="111" y="265"/>
      <point x="156" y="320"/>
      <point x="230" y="323" type="curve" smooth="yes"/>
      <point x="301" y="326"/>
      <point x="374" y="273"/>
      <point x="374" y="198" type="curve" smooth="yes"/>
    </contour>
    <contour>
      <point x="235" y="233" type="curve" smooth="yes"/>
      <point x="226" y="233"/>
      <point x="216" y="230"/>
      <point x="207" y="224" type="curve" smooth="yes"/>
      <point x="197" y="218"/>
      <point x="177" y="194"/>
      <point x="165" y="170" type="curve" smooth="yes"/>
      <point x="154" y="146"/>
      <point x="153" y="124"/>
      <point x="156" y="117" type="curve" smooth="yes"/>
      <point x="167" y="95"/>
      <point x="172" y="94"/>
      <point x="193" y="91" type="curve" smooth="yes"/>
      <point x="212" y="88"/>
      <point x="244" y="90"/>
      <point x="284" y="90" type="curve"/>
      <point x="284" y="196" type="line"/>
      <point x="283" y="211"/>
      <point x="262" y="233"/>
    </contour>
  </outline>
</glyph>
<glyph name="uni0649" format="1">
  <advance width="552"/>
  <unicode hex="0649"/>
  <outline>
    <contour>
      <point x="402" y="328" type="line"/>
      <point x="403" y="328" type="line"/>
      <point x="502" y="327" type="line"/>
      <point x="502" y="237" type="line"/>
      <point x="404" y="238" type="line" smooth="yes"/>
      <point x="400" y="238"/>
      <point x="397" y="237"/>
      <point x="394" y="237" type="curve"/>
      <point x="404" y="225"/>
      <point x="417" y="209"/>
      <point x="432" y="193" type="curve" smooth="yes"/>
      <point x="446" y="178"/>
      <point x="460" y="163"/>
      <point x="472" y="147" type="curve" smooth="yes"/>
      <point x="484" y="131"/>
      <point x="496" y="114"/>
      <point x="499" y="87" type="curve" smooth="yes"/>
      <point x="500" y="74"/>
      <point x="497" y="57"/>
      <point x="489" y="44" type="curve" smooth="yes"/>
      <point x="481" y="31"/>
      <point x="468" y="22"/>
      <point x="456" y="16" type="curve" smooth="yes"/>
      <point x="431" y="4"/>
      <point x="404" y="1"/>
      <point x="367" y="0" type="curve" smooth="yes"/>
      <point x="366" y="0" type="line"/>
      <point x="295" y="1"/>
      <point x="228" y="-4"/>
      <point x="169" y="10" type="curve" smooth="yes"/>
      <point x="139" y="17"/>
      <point x="110" y="30"/>
      <point x="88" y="55" type="curve" smooth="yes"/>
      <point x="66" y="80"/>
      <point x="53" y="114"/>
      <point x="50" y="152" type="curve" smooth="yes"/>
      <point x="50" y="154" type="line"/>
      <point x="50" y="155" type="line"/>
      <point x="50" y="322" type="line"/>
      <point x="140" y="322" type="line"/>
      <point x="140" y="158" type="line"/>
      <point x="142" y="135"/>
      <point x="148" y="123"/>
      <point x="155" y="116" type="curve" smooth="yes"/>
      <point x="162" y="108"/>
      <point x="171" y="102"/>
      <point x="190" y="98" type="curve" smooth="yes"/>
      <point x="227" y="89"/>
      <point x="291" y="91"/>
      <point x="365" y="90" type="curve" smooth="yes"/>
      <point x="366" y="90" type="line" smooth="yes"/>
      <point x="381" y="90"/>
      <point x="391" y="92"/>
      <point x="400" y="93" type="curve"/>
      <point x="392" y="104"/>
      <point x="379" y="117"/>
      <point x="366" y="131" type="curve" smooth="yes"/>
      <point x="339" y="159"/>
      <point x="308" y="183"/>
      <point x="294" y="228" type="curve" smooth="yes"/>
      <point x="290" y="239"/>
      <point x="288" y="254"/>
      <point x="292" y="269" type="curve" smooth="yes"/>
      <point x="296" y="284"/>
      <point x="307" y="298"/>
      <point x="319" y="306" type="curve" smooth="yes"/>
      <point x="342" y="323"/>
      <point x="367" y="326"/>
      <point x="400" y="328" type="curve" smooth="yes"/>
    </contour>
  </outline>
</glyph>
<glyph name="uni064D" format="1">
  <advance width="0"/>
  <unicode hex="064D"/>
  <outline>
    <contour>
      <point x="98" y="905" type="line"/>
      <point x="133" y="870" type="line"/>
      <point x="-99" y="635" type="line"/>
      <point x="-134" y="670" type="line"/>
    </contour>
    <contour>
      <point x="99" y="1066" type="line"/>
      <point x="134" y="1031" type="line"/>
      <point x="-98" y="796" type="line"/>
      <point x="-134" y="831" type="line"/>
    </contour>
  </outline>
</glyph>
<glyph name="uni064E" format="1">
  <advance width="0"/>
  <unicode hex="064E"/>
  <outline>
    <contour>
      <point x="98" y="825" type="line"/>
      <point x="134" y="789" type="line"/>
      <point x="-98" y="555" type="line"/>
      <point x="-134" y="590" type="line"/>
    </contour>
  </outline>
</glyph>
<glyph name="uni064F" format="1">
  <advance width="0"/>
  <unicode hex="064F"/>
  <outline>
    <contour>
      <point x="13" y="1043" type="curve" smooth="yes"/>
      <point x="42" y="1044"/>
      <point x="72" y="1033"/>
      <point x="94" y="1013" type="curve"/>
      <point x="138" y="972"/>
      <point x="137" y="903"/>
      <point x="96" y="859" type="curve"/>
      <point x="55" y="816"/>
      <point x="-11" y="812"/>
      <point x="-56" y="848" type="curve" smooth="yes"/>
      <point x="-104" y="886"/>
      <point x="-106" y="958"/>
      <point x="-66" y="1005" type="curve" smooth="yes"/>
      <point x="-45" y="1029"/>
      <point x="-16" y="1042"/>
    </contour>
    <contour>
      <point x="16" y="992" type="curve" smooth="yes"/>
      <point x="0" y="991"/>
      <point x="-17" y="985"/>
      <point x="-28" y="972" type="curve"/>
      <point x="-51" y="945"/>
      <point x="-49" y="906"/>
      <point x="-25" y="887" type="curve"/>
      <point x="1" y="866"/>
      <point x="37" y="868"/>
      <point x="60" y="893" type="curve" smooth="yes"/>
      <point x="83" y="918"/>
      <point x="83" y="956"/>
      <point x="60" y="977" type="curve" smooth="yes"/>
      <point x="49" y="987"/>
      <point x="32" y="993"/>
    </contour>
    <contour>
      <point x="54" y="888" type="line"/>
      <point x="91" y="855" type="line"/>
      <point x="-90" y="657" type="line"/>
      <point x="-127" y="691" type="line"/>
    </contour>
  </outline>
</glyph>
<glyph name="uni0650" format="1">
  <advance width="0"/>
  <unicode hex="0650"/>
  <outline>
    <contour>
      <point x="98" y="-775" type="line"/>
      <point x="134" y="-811" type="line"/>
      <point x="-98" y="-1045" type="line"/>
      <point x="-134" y="-1010" type="line"/>
    </contour>
  </outline>
</glyph>
<glyph name="uni0652" format="1">
  <advance width="0"/>
  <unicode hex="0652"/>
  <outline>
    <contour>
      <point x="-3" y="951" type="curve" smooth="yes"/>
      <point x="61" y="954"/>
      <point x="112" y="900"/>
      <point x="112" y="840" type="curve" smooth="yes"/>
      <point x="112" y="780"/>
      <point x="61" y="733"/>
      <point x="1" y="733" type="curve" smooth="yes"/>
      <point x="-59" y="733"/>
      <point x="-106" y="779"/>
      <point x="-111" y="837" type="curve" smooth="yes"/>
      <point x="-116" y="898"/>
      <point x="-65" y="948"/>
    </contour>
    <contour>
      <point x="-1" y="901" type="curve" smooth="yes"/>
      <point x="-37" y="900"/>
      <point x="-65" y="871"/>
      <point x="-62" y="841" type="curve" smooth="yes"/>
      <point x="-59" y="808"/>
      <point x="-33" y="783"/>
      <point x="1" y="783" type="curve" smooth="yes"/>
      <point x="35" y="783"/>
      <point x="62" y="809"/>
      <point x="62" y="840" type="curve" smooth="yes"/>
      <point x="62" y="870"/>
      <point x="32" y="902"/>
    </contour>
  </outline>
</glyph>
<glyph name="uni0661" format="1">
  <advance width="520"/>
  <unicode hex="0661"/>
  <outline>
    <contour>
      <point x="215" y="478" type="line"/>
      <point x="305" y="478" type="line"/>
      <point x="305" y="-82" type="line"/>
      <point x="215" y="-82" type="line"/>
    </contour>
  </outline>
</glyph>
<glyph name="uni0662" format="1">
  <advance width="520"/>
  <unicode hex="0662"/>
  <outline>
    <contour>
      <point x="378" y="476" type="line"/>
      <point x="378" y="387" type="line"/>
      <point x="232" y="387" type="line"/>
      <point x="232" y="-82" type="line"/>
      <point x="142" y="-82" type="line"/>
      <point x="142" y="386" type="line" smooth="yes"/>
      <point x="142" y="434"/>
      <point x="185" y="476"/>
      <point x="232" y="476" type="curve" smooth="yes"/>
    </contour>
  </outline>
</glyph>
<glyph name="uni0663" format="1">
  <advance width="520"/>
  <unicode hex="0663"/>
  <outline>
    <contour>
      <point x="371" y="477" type="line"/>
      <point x="461" y="477" type="line"/>
      <point x="461" y="322" type="line" smooth="yes"/>
      <point x="461" y="274"/>
      <point x="419" y="233"/>
      <point x="371" y="233" type="curve" smooth="yes"/>
      <point x="301" y="233" type="line"/>
      <point x="301" y="323" type="line"/>
      <point x="371" y="323" type="line" smooth="yes"/>
    </contour>
    <contour>
      <point x="216" y="477" type="line"/>
      <point x="306" y="477" type="line"/>
      <point x="306" y="322" type="line" smooth="yes"/>
      <point x="306" y="274"/>
      <point x="263" y="233"/>
      <point x="215" y="233" type="curve" smooth="yes"/>
      <point x="146" y="233" type="line"/>
      <point x="146" y="323" type="line"/>
      <point x="215" y="323" type="line" smooth="yes"/>
      <point x="216" y="323" type="line" smooth="yes"/>
    </contour>
    <contour>
      <point x="59" y="477" type="line"/>
      <point x="149" y="477" type="line"/>
      <point x="149" y="-83" type="line"/>
      <point x="59" y="-83" type="line"/>
    </contour>
  </outline>
</glyph>
<glyph name="uni0664" format="1">
  <advance width="520"/>
  <unicode hex="0664"/>
  <outline>
    <contour>
      <point x="293" y="475" type="line"/>
      <point x="346" y="403" type="line"/>
      <point x="201" y="296" type="line"/>
      <point x="316" y="191" type="line" smooth="yes"/>
      <point x="333" y="176"/>
      <point x="334" y="145"/>
      <point x="319" y="127" type="curve" smooth="yes"/>
      <point x="210" y="6" type="line"/>
      <point x="422" y="6" type="line"/>
      <point x="422" y="-84" type="line"/>
      <point x="156" y="-84" type="line" smooth="yes"/>
      <point x="149" y="-84"/>
      <point x="138" y="-81"/>
      <point x="132" y="-77" type="curve" smooth="yes"/>
      <point x="109" y="-62"/>
      <point x="94" y="-27"/>
      <point x="99" y="-2" type="curve" smooth="yes"/>
      <point x="104" y="23"/>
      <point x="117" y="37"/>
      <point x="130" y="51" type="curve" smooth="yes"/>
      <point x="222" y="154" type="line"/>
      <point x="142" y="227" type="line" smooth="yes"/>
      <point x="127" y="242"/>
      <point x="110" y="260"/>
      <point x="106" y="290" type="curve" smooth="yes"/>
      <point x="101" y="325"/>
      <point x="125" y="352"/>
      <point x="145" y="367" type="curve" smooth="yes"/>
    </contour>
  </outline>
</glyph>
<glyph name="uni0665" format="1">
  <advance width="520"/>
  <unicode hex="0665"/>
  <outline>
    <contour>
      <point x="184" y="429" type="curve" smooth="yes"/>
      <point x="227" y="458"/>
      <point x="285" y="460"/>
      <point x="330" y="432" type="curve" smooth="yes"/>
      <point x="370" y="407"/>
      <point x="396" y="366"/>
      <point x="418" y="316" type="curve" smooth="yes"/>
      <point x="460" y="220"/>
      <point x="483" y="81"/>
      <point x="422" y="-14" type="curve" smooth="yes"/>
      <point x="391" y="-62"/>
      <point x="333" y="-94"/>
      <point x="261" y="-94" type="curve" smooth="yes"/>
      <point x="189" y="-94"/>
      <point x="131" y="-63"/>
      <point x="99" y="-16" type="curve" smooth="yes"/>
      <point x="36" y="77"/>
      <point x="58" y="214"/>
      <point x="99" y="311" type="curve" smooth="yes"/>
      <point x="120" y="361"/>
      <point x="146" y="404"/>
    </contour>
    <contour>
      <point x="259" y="369" type="curve" smooth="yes"/>
      <point x="250" y="369"/>
      <point x="241" y="365"/>
      <point x="231" y="358" type="curve" smooth="yes"/>
      <point x="218" y="349"/>
      <point x="193" y="318"/>
      <point x="176" y="278" type="curve" smooth="yes"/>
      <point x="147" y="210"/>
      <point x="127" y="93"/>
      <point x="169" y="31" type="curve" smooth="yes"/>
      <point x="186" y="6"/>
      <point x="209" y="-10"/>
      <point x="260" y="-10" type="curve" smooth="yes"/>
      <point x="311" y="-10"/>
      <point x="334" y="7"/>
      <point x="351" y="33" type="curve" smooth="yes"/>
      <point x="393" y="98"/>
      <point x="371" y="215"/>
      <point x="341" y="282" type="curve" smooth="yes"/>
      <point x="323" y="322"/>
      <point x="299" y="352"/>
      <point x="286" y="360" type="curve" smooth="yes"/>
      <point x="276" y="366"/>
      <point x="268" y="369"/>
    </contour>
  </outline>
</glyph>
<glyph name="uni0666" format="1">
  <advance width="520"/>
  <unicode hex="0666"/>
  <outline>
    <contour>
      <point x="102" y="477" type="line"/>
      <point x="330" y="476" type="line" smooth="yes"/>
      <point x="378" y="476"/>
      <point x="419" y="434"/>
      <point x="419" y="386" type="curve" smooth="yes"/>
      <point x="419" y="-82" type="line"/>
      <point x="329" y="-82" type="line"/>
      <point x="329" y="386" type="line"/>
      <point x="102" y="387" type="line"/>
    </contour>
  </outline>
</glyph>
<glyph name="uni0667" format="1">
  <advance width="520"/>
  <unicode hex="0667"/>
  <outline>
    <contour>
      <point x="260" y="63" type="line"/>
      <point x="126" y="482" type="line"/>
      <point x="40" y="454" type="line"/>
      <point x="198" y="-39" type="line" smooth="yes"/>
      <point x="208" y="-70"/>
      <point x="231" y="-82"/>
      <point x="260" y="-82" type="curve" smooth="yes"/>
      <point x="288" y="-82"/>
      <point x="312" y="-70"/>
      <point x="322" y="-39" type="curve" smooth="yes"/>
      <point x="480" y="454" type="line"/>
      <point x="394" y="482" type="line"/>
    </contour>
  </outline>
</glyph>
<glyph name="uni0668" format="1">
  <advance width="520"/>
  <unicode hex="0668"/>
  <outline>
    <contour>
      <point x="260" y="337" type="line"/>
      <point x="126" y="-82" type="line"/>
      <point x="40" y="-54" type="line"/>
      <point x="198" y="439" type="line" smooth="yes"/>
      <point x="208" y="470"/>
      <point x="231" y="482"/>
      <point x="260" y="482" type="curve" smooth="yes"/>
      <point x="288" y="482"/>
      <point x="312" y="470"/>
      <point x="322" y="439" type="curve" smooth="yes"/>
      <point x="480" y="-54" type="line"/>
      <point x="394" y="-82" type="line"/>
    </contour>
  </outline>
</glyph>
<glyph name="uni0669" format="1">
  <advance width="520"/>
  <unicode hex="0669"/>
  <outline>
    <contour>
      <point x="316" y="470" type="curve" smooth="yes"/>
      <point x="367" y="454"/>
      <point x="424" y="396"/>
      <point x="424" y="324" type="curve" smooth="yes"/>
      <point x="424" y="324"/>
      <point x="424" y="57"/>
      <point x="424" y="-82" type="curve"/>
      <point x="334" y="-82" type="line"/>
      <point x="334" y="157" type="line"/>
      <point x="233" y="158" type="line" smooth="yes"/>
      <point x="214" y="159"/>
      <point x="147" y="184"/>
      <point x="121" y="228" type="curve" smooth="yes"/>
      <point x="71" y="311"/>
      <point x="96" y="403"/>
      <point x="171" y="450" type="curve" smooth="yes"/>
      <point x="212" y="475"/>
      <point x="257" y="488"/>
    </contour>
    <contour>
      <point x="218" y="374" type="curve" smooth="yes"/>
      <point x="169" y="347"/>
      <point x="175" y="248"/>
      <point x="243" y="248" type="curve" smooth="yes"/>
      <point x="334" y="248" type="line"/>
      <point x="334" y="324" type="line" smooth="yes"/>
      <point x="334" y="391"/>
      <point x="262" y="398"/>
    </contour>
  </outline>
</glyph>
<glyph name="uni066E" format="1">
  <advance width="581"/>
  <unicode hex="066E"/>
  <outline>
    <contour>
      <point x="140" y="320" type="line"/>
      <point x="140" y="257" type="line" smooth="yes"/>
      <point x="140" y="148"/>
      <point x="172" y="90"/>
      <point x="237" y="90" type="curve" smooth="yes"/>
      <point x="441" y="90" type="line"/>
      <point x="441" y="320" type="line"/>
      <point x="531" y="320" type="line"/>
      <point x="531" y="91" type="line" smooth="yes"/>
      <point x="531" y="44"/>
      <point x="492" y="0"/>
      <point x="440" y="0" type="curve" smooth="yes"/>
      <point x="237" y="0" type="line" smooth="yes"/>
      <point x="79" y="0"/>
      <point x="50" y="141"/>
      <point x="50" y="257" type="curve" smooth="yes"/>
      <point x="50" y="320" type="line"/>
    </contour>
  </outline>
</glyph>
<glyph name="uni066F" format="1">
  <advance width="672"/>
  <unicode hex="066F"/>
  <outline>
    <contour>
      <point x="439" y="91" type="curve" smooth="yes"/>
      <point x="458" y="89"/>
      <point x="491" y="90"/>
      <point x="532" y="90" type="curve"/>
      <point x="532" y="147" type="line" smooth="yes"/>
      <point x="532" y="187"/>
      <point x="508" y="216"/>
      <point x="486" y="223" type="curve" smooth="yes"/>
      <point x="379" y="258"/>
      <point x="347" y="100"/>
    </contour>
    <contour>
      <point x="140" y="-46" type="line" smooth="yes"/>
      <point x="140" y="-69"/>
      <point x="159" y="-79"/>
      <point x="181" y="-80" type="curve" smooth="yes"/>
      <point x="532" y="-80" type="line"/>
      <point x="532" y="0" type="line"/>
      <point x="497" y="0"/>
      <point x="466" y="-1"/>
      <point x="431" y="2" type="curve" smooth="yes"/>
      <point x="393" y="6"/>
      <point x="349" y="23"/>
      <point x="320" y="65" type="curve" smooth="yes"/>
      <point x="320" y="66"/>
      <point x="319" y="66"/>
      <point x="319" y="67" type="curve" smooth="yes"/>
      <point x="267" y="152"/>
      <point x="304" y="242"/>
      <point x="369" y="289" type="curve" smooth="yes"/>
      <point x="404" y="314"/>
      <point x="466" y="324"/>
      <point x="513" y="309" type="curve" smooth="yes"/>
      <point x="560" y="294"/>
      <point x="622" y="240"/>
      <point x="622" y="167" type="curve" smooth="yes"/>
      <point x="622" y="-79" type="line" smooth="yes"/>
      <point x="622" y="-126"/>
      <point x="583" y="-169"/>
      <point x="531" y="-170" type="curve"/>
      <point x="177" y="-170" type="line" smooth="yes"/>
      <point x="106" y="-170"/>
      <point x="50" y="-114"/>
      <point x="50" y="-43" type="curve" smooth="yes"/>
      <point x="50" y="156" type="line"/>
      <point x="140" y="156" type="line"/>
    </contour>
  </outline>
</glyph>
<glyph name="uni06A1" format="1">
  <advance width="741"/>
  <unicode hex="06A1"/>
  <outline>
    <contour>
      <point x="509" y="91" type="curve" smooth="yes"/>
      <point x="528" y="89"/>
      <point x="561" y="90"/>
      <point x="602" y="90" type="curve"/>
      <point x="602" y="147" type="line" smooth="yes"/>
      <point x="602" y="187"/>
      <point x="578" y="216"/>
      <point x="556" y="223" type="curve" smooth="yes"/>
      <point x="449" y="258"/>
      <point x="417" y="100"/>
    </contour>
    <contour>
      <point x="182" y="-170" type="line" smooth="yes"/>
      <point x="111" y="-170"/>
      <point x="51.0153" y="-112.942"/>
      <point x="52" y="-45" type="curve"/>
      <point x="50" y="82" type="line"/>
      <point x="140" y="83" type="line"/>
      <point x="142" y="-44" type="line" smooth="yes"/>
      <point x="142" y="-45" type="line" smooth="yes"/>
      <point x="142" y="-46" type="line" smooth="yes"/>
      <point x="142" y="-54"/>
      <point x="161" y="-80"/>
      <point x="182" y="-80" type="curve" smooth="yes"/>
      <point x="601" y="-80" type="line"/>
      <point x="601" y="0" type="line"/>
      <point x="566" y="0"/>
      <point x="535" y="-1"/>
      <point x="500" y="2" type="curve" smooth="yes"/>
      <point x="462" y="6"/>
      <point x="418" y="23"/>
      <point x="389" y="65" type="curve" smooth="yes"/>
      <point x="389" y="66"/>
      <point x="388" y="66"/>
      <point x="388" y="67" type="curve" smooth="yes"/>
      <point x="336" y="152"/>
      <point x="373" y="242"/>
      <point x="438" y="289" type="curve" smooth="yes"/>
      <point x="473" y="314"/>
      <point x="535" y="324"/>
      <point x="582" y="309" type="curve" smooth="yes"/>
      <point x="629" y="294"/>
      <point x="691" y="240"/>
      <point x="691" y="167" type="curve" smooth="yes"/>
      <point x="691" y="-79" type="line" smooth="yes"/>
      <point x="691" y="-126"/>
      <point x="652" y="-169"/>
      <point x="600" y="-170" type="curve" smooth="yes"/>
    </contour>
  </outline>
</glyph>
<glyph name="uni06D2" format="1">
  <advance width="819"/>
  <unicode hex="06D2"/>
  <outline>
    <contour>
      <point x="386" y="198" type="curve" smooth="yes"/>
      <point x="435" y="196"/>
      <point x="476" y="176"/>
      <point x="503" y="159" type="curve"/>
      <point x="455" y="82" type="line"/>
      <point x="437" y="93"/>
      <point x="407" y="107"/>
      <point x="382" y="108" type="curve" smooth="yes"/>
      <point x="357" y="109"/>
      <point x="336" y="105"/>
      <point x="313" y="72" type="curve" smooth="yes"/>
      <point x="310" y="68"/>
      <point x="307" y="49"/>
      <point x="289" y="23" type="curve" smooth="yes"/>
      <point x="271" y="-3"/>
      <point x="237" y="-25"/>
      <point x="184" y="-39" type="curve" smooth="yes"/>
      <point x="150" y="-48"/>
      <point x="138" y="-74"/>
      <point x="141" y="-94" type="curve" smooth="yes"/>
      <point x="144" y="-114"/>
      <point x="162" y="-141"/>
      <point x="240" y="-144" type="curve"/>
      <point x="770" y="-144" type="line"/>
      <point x="770" y="-234" type="line"/>
      <point x="238" y="-234" type="line" smooth="yes"/>
      <point x="237" y="-234" type="line" smooth="yes"/>
      <point x="132" y="-231"/>
      <point x="63" y="-175"/>
      <point x="52" y="-107" type="curve" smooth="yes"/>
      <point x="41" y="-39"/>
      <point x="87" y="29"/>
      <point x="161" y="48" type="curve" smooth="yes"/>
      <point x="202" y="59"/>
      <point x="210" y="68"/>
      <point x="215" y="75" type="curve" smooth="yes"/>
      <point x="220" y="82"/>
      <point x="222" y="98"/>
      <point x="240" y="123" type="curve" smooth="yes"/>
      <point x="279" y="178"/>
      <point x="337" y="200"/>
    </contour>
  </outline>
</glyph>
<glyph name="uniFBAF" format="1">
  <advance width="609"/>
  <unicode hex="FBAF"/>
  <outline>
    <contour>
      <point x="367" y="198" type="curve" smooth="yes"/>
      <point x="416" y="198"/>
      <point x="464" y="170"/>
      <point x="489" y="123" type="curve" smooth="yes"/>
      <point x="498" y="106"/>
      <point x="505" y="99"/>
      <point x="512" y="95" type="curve" smooth="yes"/>
      <point x="519" y="91"/>
      <point x="527" y="89"/>
      <point x="545" y="90" type="curve"/>
      <point x="551" y="0" type="line"/>
      <point x="521" y="-2"/>
      <point x="491" y="3"/>
      <point x="466" y="18" type="curve" smooth="yes"/>
      <point x="441" y="33"/>
      <point x="423" y="56"/>
      <point x="409" y="82" type="curve" smooth="yes"/>
      <point x="399" y="101"/>
      <point x="384" y="108"/>
      <point x="367" y="108" type="curve" smooth="yes"/>
      <point x="350" y="108"/>
      <point x="331" y="100"/>
      <point x="315" y="74" type="curve" smooth="yes"/>
      <point x="312" y="68"/>
      <point x="308" y="48"/>
      <point x="289" y="22" type="curve" smooth="yes"/>
      <point x="270" y="-4"/>
      <point x="237" y="-25"/>
      <point x="184" y="-39" type="curve" smooth="yes"/>
      <point x="150" y="-48"/>
      <point x="138" y="-74"/>
      <point x="141" y="-94" type="curve" smooth="yes"/>
      <point x="144" y="-114"/>
      <point x="162" y="-142"/>
      <point x="240" y="-145" type="curve"/>
      <point x="610" y="-145" type="line"/>
      <point x="610" y="-235" type="line"/>
      <point x="238" y="-235" type="line" smooth="yes"/>
      <point x="237" y="-235" type="line" smooth="yes"/>
      <point x="132" y="-232"/>
      <point x="63" y="-176"/>
      <point x="52" y="-108" type="curve" smooth="yes"/>
      <point x="41" y="-40"/>
      <point x="87" y="29"/>
      <point x="161" y="48" type="curve" smooth="yes"/>
      <point x="202" y="59"/>
      <point x="212" y="68"/>
      <point x="217" y="75" type="curve" smooth="yes"/>
      <point x="222" y="82"/>
      <point x="223" y="95"/>
      <point x="238" y="120" type="curve" smooth="yes"/>
      <point x="268" y="170"/>
      <point x="318" y="198"/>
    </contour>
  </outline>
</glyph>
<glyph name="uniFC37" format="1">
  <advance width="525"/>
  <unicode hex="FC37"/>
  <outline>
    <contour>
      <point x="414" y="570" type="curve"/>
      <point x="444" y="485" type="line"/>
      <point x="371" y="459"/>
      <point x="278" y="418"/>
      <point x="222" y="370" type="curve" smooth="yes"/>
      <point x="220" y="368" type="line"/>
      <point x="218" y="367" type="line" smooth="yes"/>
      <point x="216" y="366" type="line" smooth="yes"/>
      <point x="216" y="365"/>
      <point x="218" y="360"/>
      <point x="227" y="354" type="curve" smooth="yes"/>
      <point x="230" y="352" type="line"/>
      <point x="232" y="350" type="line"/>
      <point x="450" y="136" type="line"/>
      <point x="472" y="116"/>
      <point x="480" y="90"/>
      <point x="473" y="59" type="curve" smooth="yes"/>
      <point x="469" y="43"/>
      <point x="459" y="27"/>
      <point x="443" y="16" type="curve" smooth="yes"/>
      <point x="427" y="5"/>
      <point x="408" y="0"/>
      <point x="389" y="0" type="curve" smooth="yes"/>
      <point x="147" y="0" type="line" smooth="yes"/>
      <point x="121" y="0"/>
      <point x="95" y="11"/>
      <point x="78" y="29" type="curve" smooth="yes"/>
      <point x="61" y="47"/>
      <point x="56" y="70"/>
      <point x="56" y="92" type="curve"/>
      <point x="56" y="93" type="line"/>
      <point x="50" y="562" type="line"/>
      <point x="140" y="563" type="line"/>
      <point x="142" y="415" type="line"/>
      <point x="148" y="424"/>
      <point x="155" y="432"/>
      <point x="163" y="438" type="curve"/>
      <point x="236" y="501"/>
      <point x="337" y="542"/>
    </contour>
    <contour>
      <point x="143" y="313" type="curve"/>
      <point x="146" y="93" type="line"/>
      <point x="146" y="92" type="line"/>
      <point x="146" y="91"/>
      <point x="146" y="91"/>
      <point x="146" y="90" type="curve" smooth="yes"/>
      <point x="147" y="90" type="line"/>
      <point x="368" y="90" type="line"/>
      <point x="171" y="284" type="line" smooth="yes"/>
      <point x="160" y="292"/>
      <point x="150" y="302"/>
    </contour>
    <contour>
      <point x="384" y="75" type="curve" smooth="yes"/>
      <point x="386" y="72" type="line" smooth="yes"/>
      <point x="385" y="73"/>
      <point x="384" y="75"/>
    </contour>
  </outline>
</glyph>
<glyph name="uniFEA3" format="1">
  <advance width="477"/>
  <unicode hex="FEA3"/>
  <outline>
    <contour>
      <point x="315" y="90" type="line" smooth="yes"/>
      <point x="296" y="90"/>
      <point x="268" y="114"/>
      <point x="217" y="178" type="curve" smooth="yes"/>
      <point x="191" y="211"/>
      <point x="132" y="262"/>
      <point x="78" y="274" type="curve"/>
      <point x="118" y="350" type="line"/>
      <point x="178" y="350"/>
      <point x="251" y="279"/>
      <point x="279" y="242" type="curve" smooth="yes"/>
      <point x="320" y="188"/>
      <point x="356" y="140"/>
      <point x="405" y="136" type="curve"/>
      <point x="427" y="136" type="line"/>
      <point x="427" y="80" type="line" smooth="yes"/>
      <point x="427" y="32"/>
      <point x="414" y="0"/>
      <point x="369" y="0" type="curve" smooth="yes"/>
      <point x="369" y="0"/>
      <point x="136" y="0"/>
      <point x="0" y="0" type="curve"/>
      <point x="0" y="90" type="line"/>
    </contour>
  </outline>
</glyph>
<glyph name="uniFEB3" format="1">
  <advance width="602"/>
  <unicode hex="FEB3"/>
  <outline>
    <contour>
      <point x="462" y="320" type="line"/>
      <point x="552" y="320" type="line"/>
      <point x="552" y="89" type="line" smooth="yes"/>
      <point x="552" y="41"/>
      <point x="510" y="0"/>
      <point x="462" y="0" type="curve" smooth="yes"/>
      <point x="392" y="0" type="line"/>
      <point x="392" y="90" type="line"/>
      <point x="462" y="90" type="line"/>
    </contour>
    <contour>
      <point x="306" y="320" type="line"/>
      <point x="396" y="320" type="line"/>
      <point x="396" y="89" type="line" smooth="yes"/>
      <point x="396" y="41"/>
      <point x="354" y="0"/>
      <point x="306" y="0" type="curve" smooth="yes"/>
      <point x="236" y="0" type="line"/>
      <point x="236" y="90" type="line"/>
      <point x="306" y="90" type="line"/>
    </contour>
    <contour>
      <point x="151" y="320" type="line"/>
      <point x="241" y="320" type="line"/>
      <point x="241" y="89" type="line" smooth="yes"/>
      <point x="241" y="41"/>
      <point x="199" y="0"/>
      <point x="151" y="0" type="curve" smooth="yes"/>
      <point x="0" y="0" type="line"/>
      <point x="0" y="90" type="line"/>
      <point x="151" y="90" type="line"/>
    </contour>
  </outline>
</glyph>
<glyph name="uniFEBB" format="1">
  <advance width="601"/>
  <unicode hex="FEBB"/>
  <outline>
    <contour>
      <point x="404" y="323" type="curve" smooth="yes"/>
      <point x="421" y="323"/>
      <point x="444" y="321"/>
      <point x="459" y="313" type="curve" smooth="yes"/>
      <point x="519" y="288"/>
      <point x="549" y="230"/>
      <point x="551" y="148" type="curve"/>
      <point x="551" y="91" type="line" smooth="yes"/>
      <point x="551" y="41"/>
      <point x="508" y="0"/>
      <point x="460" y="0" type="curve" smooth="yes"/>
      <point x="0" y="0" type="line"/>
      <point x="0" y="90" type="line"/>
      <point x="136" y="90" type="line"/>
      <point x="179" y="149"/>
      <point x="222" y="212"/>
      <point x="271" y="258" type="curve" smooth="yes"/>
      <point x="296" y="282"/>
      <point x="323" y="301"/>
      <point x="354" y="313" type="curve" smooth="yes"/>
      <point x="370" y="319"/>
      <point x="387" y="323"/>
    </contour>
    <contour>
      <point x="461" y="145" type="curve" smooth="yes"/>
      <point x="459" y="196"/>
      <point x="451" y="233"/>
      <point x="406" y="233" type="curve" smooth="yes"/>
      <point x="400" y="233"/>
      <point x="393" y="232"/>
      <point x="386" y="229" type="curve" smooth="yes"/>
      <point x="371" y="223"/>
      <point x="353" y="211"/>
      <point x="333" y="192" type="curve" smooth="yes"/>
      <point x="306" y="167"/>
      <point x="278" y="130"/>
      <point x="248" y="90" type="curve"/>
      <point x="461" y="90" type="line"/>
      <point x="461" y="108"/>
      <point x="461" y="127"/>
    </contour>
    <contour>
      <point x="73" y="236" type="line"/>
      <point x="163" y="236" type="line"/>
      <point x="163" y="84" type="line"/>
      <point x="73" y="84" type="line"/>
    </contour>
  </outline>
</glyph>
<glyph name="uniFECB" format="1">
  <advance width="391"/>
  <unicode hex="FECB"/>
  <outline>
    <contour>
      <point x="160" y="31" type="line"/>
      <point x="127" y="68"/>
      <point x="98" y="108"/>
      <point x="80" y="154" type="curve" smooth="yes"/>
      <point x="64" y="198"/>
      <point x="67" y="266"/>
      <point x="95" y="299" type="curve" smooth="yes"/>
      <point x="123" y="332"/>
      <point x="164" y="346"/>
      <point x="210" y="348" type="curve" smooth="yes"/>
      <point x="249" y="350"/>
      <point x="293" y="345"/>
      <point x="341" y="332" type="curve"/>
      <point x="341" y="238" type="line"/>
      <point x="290" y="254"/>
      <point x="246" y="260"/>
      <point x="215" y="258" type="curve" smooth="yes"/>
      <point x="162" y="255"/>
      <point x="144" y="241"/>
      <point x="164" y="184" type="curve" smooth="yes"/>
      <point x="172" y="162"/>
      <point x="204" y="114"/>
      <point x="237" y="82" type="curve"/>
    </contour>
    <contour>
      <point x="341" y="90" type="line"/>
      <point x="341" y="0" type="line"/>
      <point x="247" y="0" type="line" smooth="yes"/>
      <point x="236" y="0"/>
      <point x="224" y="3"/>
      <point x="217" y="7" type="curve" smooth="yes"/>
      <point x="192" y="21"/>
      <point x="167" y="21"/>
      <point x="142" y="7" type="curve" smooth="yes"/>
      <point x="135" y="3"/>
      <point x="122" y="0"/>
      <point x="110" y="0" type="curve" smooth="yes"/>
      <point x="0" y="0" type="line"/>
      <point x="0" y="90" type="line"/>
    </contour>
  </outline>
</glyph>
<glyph name="uniFEDB" format="1">
  <advance width="528"/>
  <unicode hex="FEDB"/>
  <outline>
    <contour>
      <point x="452" y="571" type="curve"/>
      <point x="340.036" y="541.5"/>
      <point x="279.776" y="522.906"/>
      <point x="249" y="512" type="curve" smooth="yes"/>
      <point x="142.381" y="474.219"/>
      <point x="118" y="460.264"/>
      <point x="118" y="405" type="curve" smooth="yes"/>
      <point x="118" y="354"/>
      <point x="138" y="342"/>
      <point x="220" y="258" type="curve"/>
      <point x="272.805" y="204"/>
      <point x="325.588" y="150"/>
      <point x="378.143" y="96" type="curve"/>
      <point x="380" y="94"/>
      <point x="381" y="93"/>
      <point x="384" y="90" type="curve"/>
      <point x="382" y="90"/>
      <point x="380" y="90"/>
      <point x="378" y="90" type="curve"/>
      <point x="251.68" y="90"/>
      <point x="129.491" y="90"/>
      <point x="0" y="90" type="curve"/>
      <point x="5.98089e-08" y="55.3113"/>
      <point x="-1.40245e-09" y="30.11"/>
      <point x="0" y="0" type="curve"/>
      <point x="132.763" y="-5.57856e-05"/>
      <point x="262.833" y="-2.63523e-05"/>
      <point x="393" y="0" type="curve"/>
      <point x="437.635" y="0"/>
      <point x="470.076" y="30.073"/>
      <point x="477" y="67" type="curve" smooth="yes"/>
      <point x="483.683" y="102.645"/>
      <point x="473.599" y="127.401"/>
      <point x="454" y="147" type="curve"/>
      <point x="396.237" y="206.507"/>
      <point x="338.566" y="265.899"/>
      <point x="278.746" y="328" type="curve"/>
      <point x="260.244" y="347.109"/>
      <point x="236" y="371"/>
      <point x="210" y="399" type="curve"/>
      <point x="234.482" y="408.86"/>
      <point x="257.076" y="418.138"/>
      <point x="279" y="425.89" type="curve" smooth="yes"/>
      <point x="344.41" y="449.017"/>
      <point x="401.233" y="465.785"/>
      <point x="471" y="482" type="curve"/>
    </contour>
  </outline>
</glyph>
<glyph name="uniFEDF" format="1">
  <advance width="264"/>
  <unicode hex="FEDF"/>
  <outline>
    <contour>
      <point x="124" y="560" type="line"/>
      <point x="214" y="560" type="line"/>
      <point x="214" y="89" type="line" smooth="yes"/>
      <point x="214" y="41"/>
      <point x="172" y="0"/>
      <point x="124" y="0" type="curve" smooth="yes"/>
      <point x="0" y="0" type="line"/>
      <point x="0" y="90" type="line"/>
      <point x="124" y="90" type="line"/>
    </contour>
  </outline>
</glyph>
<glyph name="uniFEE3" format="1">
  <advance width="447"/>
  <unicode hex="FEE3"/>
  <outline>
    <contour>
      <point x="216" y="332" type="curve" smooth="yes"/>
      <point x="245" y="332"/>
      <point x="275" y="322"/>
      <point x="302" y="305" type="curve"/>
      <point x="302" y="306" type="line"/>
      <point x="302" y="305" type="line"/>
      <point x="334" y="284"/>
      <point x="359" y="253"/>
      <point x="377" y="215" type="curve" smooth="yes"/>
      <point x="395" y="177"/>
      <point x="407" y="131"/>
      <point x="387" y="86" type="curve"/>
      <point x="387" y="85" type="line"/>
      <point x="386" y="85" type="line"/>
      <point x="365" y="37"/>
      <point x="319" y="12"/>
      <point x="279" y="5" type="curve" smooth="yes"/>
      <point x="239" y="-2"/>
      <point x="200" y="1"/>
      <point x="171" y="0" type="curve"/>
      <point x="171" y="66" type="line"/>
      <point x="160" y="29"/>
      <point x="122" y="0"/>
      <point x="82" y="0" type="curve" smooth="yes"/>
      <point x="0" y="0" type="line"/>
      <point x="0" y="90" type="line"/>
      <point x="28" y="90"/>
      <point x="55" y="90"/>
      <point x="83" y="90" type="curve"/>
      <point x="83" y="208" type="line" smooth="yes"/>
      <point x="83" y="261"/>
      <point x="122" y="304"/>
      <point x="165" y="322" type="curve" smooth="yes"/>
      <point x="181" y="329"/>
      <point x="198" y="332"/>
    </contour>
    <contour>
      <point x="253" y="230" type="curve" smooth="yes"/>
      <point x="215" y="254"/>
      <point x="173" y="244"/>
      <point x="173" y="199" type="curve" smooth="yes"/>
      <point x="172" y="90" type="line"/>
      <point x="206" y="91"/>
      <point x="239" y="90"/>
      <point x="262" y="94" type="curve" smooth="yes"/>
      <point x="288" y="98"/>
      <point x="295" y="103"/>
      <point x="305" y="123" type="curve" smooth="yes"/>
      <point x="308" y="130"/>
      <point x="308" y="152"/>
      <point x="296" y="176" type="curve" smooth="yes"/>
      <point x="284" y="200"/>
      <point x="263" y="224"/>
    </contour>
  </outline>
</glyph>
<glyph name="uniFEEB" format="1">
  <advance width="524"/>
  <unicode hex="FEEB"/>
  <outline>
    <contour>
      <point x="157" y="326" type="line"/>
      <point x="200" y="326"/>
      <point x="273" y="328"/>
      <point x="342" y="299" type="curve" smooth="yes"/>
      <point x="411" y="270"/>
      <point x="474" y="200"/>
      <point x="474" y="88" type="curve" smooth="yes"/>
      <point x="474" y="65"/>
      <point x="467" y="41"/>
      <point x="450" y="23" type="curve" smooth="yes"/>
      <point x="433" y="6"/>
      <point x="409" y="0"/>
      <point x="389" y="0" type="curve"/>
      <point x="0" y="0" type="line"/>
      <point x="0" y="90" type="line"/>
      <point x="383" y="90" type="line"/>
      <point x="382" y="171"/>
      <point x="353" y="197"/>
      <point x="308" y="216" type="curve" smooth="yes"/>
      <point x="263" y="235"/>
      <point x="200" y="236"/>
      <point x="157" y="236" type="curve"/>
    </contour>
    <contour>
      <point x="189" y="247" type="curve" smooth="yes"/>
      <point x="218" y="247"/>
      <point x="248" y="239"/>
      <point x="273" y="219" type="curve" smooth="yes"/>
      <point x="298" y="199"/>
      <point x="314" y="165"/>
      <point x="315" y="128" type="curve" smooth="yes"/>
      <point x="315" y="128"/>
      <point x="315" y="74"/>
      <point x="315" y="47" type="curve"/>
      <point x="225" y="47" type="line"/>
      <point x="225" y="126" type="line" smooth="yes"/>
      <point x="225" y="149"/>
      <point x="211" y="157"/>
      <point x="190" y="157" type="curve" smooth="yes"/>
      <point x="169" y="157"/>
      <point x="157" y="149"/>
      <point x="157" y="127" type="curve" smooth="yes"/>
      <point x="157" y="47" type="line"/>
      <point x="67" y="47" type="line"/>
      <point x="67" y="127" type="line" smooth="yes"/>
      <point x="67" y="163"/>
      <point x="82" y="197"/>
      <point x="106" y="217" type="curve" smooth="yes"/>
      <point x="130" y="238"/>
      <point x="160" y="247"/>
    </contour>
  </outline>
</glyph>
<glyph name="uniFEEC" format="1">
  <advance width="390"/>
  <unicode hex="FEEC"/>
  <outline>
    <contour>
      <point x="197" y="-157" type="curve" smooth="yes"/>
      <point x="168" y="-157"/>
      <point x="138" y="-148"/>
      <point x="114" y="-127" type="curve" smooth="yes"/>
      <point x="90" y="-107"/>
      <point x="75" y="-73"/>
      <point x="75" y="-37" type="curve" smooth="yes"/>
      <point x="75" y="43" type="line"/>
      <point x="165" y="43" type="line"/>
      <point x="165" y="-37" type="line" smooth="yes"/>
      <point x="165" y="-59"/>
      <point x="177" y="-67"/>
      <point x="198" y="-67" type="curve" smooth="yes"/>
      <point x="219" y="-67"/>
      <point x="233" y="-59"/>
      <point x="233" y="-36" type="curve" smooth="yes"/>
      <point x="233" y="43" type="line"/>
      <point x="323" y="43" type="line"/>
      <point x="323" y="-38" type="line" smooth="yes"/>
      <point x="322" y="-75"/>
      <point x="306" y="-109"/>
      <point x="281" y="-129" type="curve" smooth="yes"/>
      <point x="256" y="-149"/>
      <point x="226" y="-157"/>
    </contour>
    <contour>
      <point x="197" y="247" type="curve" smooth="yes"/>
      <point x="226" y="247"/>
      <point x="256" y="239"/>
      <point x="281" y="219" type="curve" smooth="yes"/>
      <point x="306" y="199"/>
      <point x="322" y="165"/>
      <point x="323" y="128" type="curve" smooth="yes"/>
      <point x="323" y="128"/>
      <point x="323" y="74"/>
      <point x="323" y="47" type="curve"/>
      <point x="233" y="47" type="line"/>
      <point x="233" y="126" type="line" smooth="yes"/>
      <point x="233" y="149"/>
      <point x="219" y="157"/>
      <point x="198" y="157" type="curve" smooth="yes"/>
      <point x="177" y="157"/>
      <point x="165" y="149"/>
      <point x="165" y="127" type="curve" smooth="yes"/>
      <point x="165" y="47" type="line"/>
      <point x="75" y="47" type="line"/>
      <point x="75" y="127" type="line" smooth="yes"/>
      <point x="75" y="163"/>
      <point x="90" y="197"/>
      <point x="114" y="217" type="curve" smooth="yes"/>
      <point x="138" y="238"/>
      <point x="168" y="247"/>
    </contour>
    <contour>
      <point x="390" y="90" type="line"/>
      <point x="390" y="0" type="line"/>
      <point x="1" y="0" type="line"/>
      <point x="0" y="90" type="line"/>
    </contour>
  </outline>
</glyph>
<glyph name="uniFEF0" format="1">
  <advance width="502"/>
  <unicode hex="FEF0"/>
  <outline>
    <contour>
      <point x="402" y="168" type="line"/>
      <point x="403" y="168" type="line"/>
      <point x="502" y="167" type="line"/>
      <point x="502" y="77" type="line"/>
      <point x="404" y="78" type="line" smooth="yes"/>
      <point x="400" y="78"/>
      <point x="397" y="77"/>
      <point x="394" y="77" type="curve"/>
      <point x="404" y="65"/>
      <point x="417" y="49"/>
      <point x="432" y="33" type="curve" smooth="yes"/>
      <point x="446" y="18"/>
      <point x="460" y="3"/>
      <point x="472" y="-13" type="curve" smooth="yes"/>
      <point x="484" y="-29"/>
      <point x="496" y="-46"/>
      <point x="499" y="-73" type="curve" smooth="yes"/>
      <point x="500" y="-86"/>
      <point x="497" y="-103"/>
      <point x="489" y="-116" type="curve" smooth="yes"/>
      <point x="481" y="-129"/>
      <point x="468" y="-138"/>
      <point x="456" y="-144" type="curve" smooth="yes"/>
      <point x="431" y="-156"/>
      <point x="404" y="-159"/>
      <point x="367" y="-160" type="curve" smooth="yes"/>
      <point x="366" y="-160" type="line"/>
      <point x="295" y="-159"/>
      <point x="228" y="-164"/>
      <point x="169" y="-150" type="curve" smooth="yes"/>
      <point x="139" y="-143"/>
      <point x="110" y="-130"/>
      <point x="88" y="-105" type="curve" smooth="yes"/>
      <point x="66" y="-80"/>
      <point x="53" y="-46"/>
      <point x="50" y="-8" type="curve" smooth="yes"/>
      <point x="50" y="-6" type="line"/>
      <point x="50" y="-5" type="line"/>
      <point x="50" y="162" type="line"/>
      <point x="140" y="162" type="line"/>
      <point x="140" y="-2" type="line"/>
      <point x="142" y="-25"/>
      <point x="148" y="-37"/>
      <point x="155" y="-44" type="curve" smooth="yes"/>
      <point x="162" y="-52"/>
      <point x="171" y="-58"/>
      <point x="190" y="-62" type="curve" smooth="yes"/>
      <point x="227" y="-71"/>
      <point x="291" y="-69"/>
      <point x="365" y="-70" type="curve" smooth="yes"/>
      <point x="366" y="-70" type="line" smooth="yes"/>
      <point x="381" y="-70"/>
      <point x="391" y="-68"/>
      <point x="400" y="-67" type="curve"/>
      <point x="392" y="-56"/>
      <point x="379" y="-43"/>
      <point x="366" y="-29" type="curve" smooth="yes"/>
      <point x="339" y="-1"/>
      <point x="308" y="23"/>
      <point x="294" y="68" type="curve" smooth="yes"/>
      <point x="290" y="79"/>
      <point x="288" y="94"/>
      <point x="292" y="109" type="curve" smooth="yes"/>
      <point x="296" y="124"/>
      <point x="307" y="138"/>
      <point x="319" y="146" type="curve" smooth="yes"/>
      <point x="342" y="163"/>
      <point x="367" y="166"/>
      <point x="400" y="168" type="curve" smooth="yes"/>
    </contour>
  </outline>
</glyph>
<glyph name="uniFEFB" format="1">
  <advance width="388"/>
  <unicode hex="FEFB"/>
  <outline>
    <contour>
      <point x="145" y="560" type="line"/>
      <point x="248" y="277" type="line"/>
      <point x="248" y="560" type="line"/>
      <point x="338" y="560" type="line"/>
      <point x="338" y="90" type="line" smooth="yes"/>
      <point x="338" y="42"/>
      <point x="295" y="0"/>
      <point x="247" y="0" type="curve" smooth="yes"/>
      <point x="50" y="0" type="line"/>
      <point x="50" y="90" type="line"/>
      <point x="123" y="100"/>
      <point x="176" y="120"/>
      <point x="176" y="203" type="curve"/>
      <point x="50" y="560" type="line"/>
    </contour>
    <contour>
      <point x="247" y="155" type="line"/>
      <point x="232" y="125"/>
      <point x="190" y="102"/>
      <point x="146" y="90" type="curve"/>
      <point x="247" y="90" type="line"/>
    </contour>
  </outline>
</glyph>
<glyph name="dot" format="1">
  <advance width="0"/>
  <outline>
    <contour>
      <point x="-1" y="90" type="curve" smooth="yes"/>
      <point x="1" y="90" type="line" smooth="yes"/>
      <point x="26" y="90"/>
      <point x="46" y="70"/>
      <point x="46" y="45" type="curve" smooth="yes"/>
      <point x="46" y="20"/>
      <point x="26" y="0"/>
      <point x="1" y="0" type="curve" smooth="yes"/>
      <point x="-1" y="0" type="line" smooth="yes"/>
      <point x="-26" y="0"/>
      <point x="-46" y="20"/>
      <point x="-46" y="45" type="curve" smooth="yes"/>
      <point x="-46" y="70"/>
      <point x="-26" y="90"/>
    </contour>
  </outline>
</glyph>
<glyph name="initialbaa" format="1">
  <advance width="385"/>
  <outline>
    <contour>
      <point x="245" y="320" type="line"/>
      <point x="335" y="320" type="line"/>
      <point x="335" y="90" type="line" smooth="yes"/>
      <point x="335" y="42"/>
      <point x="293" y="0"/>
      <point x="245" y="0" type="curve" smooth="yes"/>
      <point x="0" y="0" type="line"/>
      <point x="0" y="90" type="line"/>
      <point x="245" y="90" type="line"/>
    </contour>
  </outline>
</glyph>
<glyph name="initialdotlessfeh" format="1">
  <advance width="451"/>
  <outline>
    <contour>
      <point x="219" y="201" type="curve" smooth="yes"/>
      <point x="238" y="199"/>
      <point x="271" y="200"/>
      <point x="312" y="200" type="curve"/>
      <point x="312" y="257" type="line" smooth="yes"/>
      <point x="312" y="297"/>
      <point x="288" y="326"/>
      <point x="266" y="333" type="curve" smooth="yes"/>
      <point x="159" y="368"/>
      <point x="127" y="210"/>
    </contour>
    <contour>
      <point x="0" y="90" type="line"/>
      <point x="311" y="90" type="line"/>
      <point x="311" y="110" type="line"/>
      <point x="276" y="110"/>
      <point x="245" y="109"/>
      <point x="210" y="112" type="curve" smooth="yes"/>
      <point x="172" y="116"/>
      <point x="128" y="133"/>
      <point x="99" y="175" type="curve" smooth="yes"/>
      <point x="99" y="176"/>
      <point x="98" y="176"/>
      <point x="98" y="177" type="curve" smooth="yes"/>
      <point x="46" y="262"/>
      <point x="83" y="352"/>
      <point x="148" y="399" type="curve" smooth="yes"/>
      <point x="183" y="424"/>
      <point x="245" y="434"/>
      <point x="292" y="419" type="curve" smooth="yes"/>
      <point x="339" y="404"/>
      <point x="401" y="350"/>
      <point x="401" y="277" type="curve" smooth="yes"/>
      <point x="401" y="91" type="line" smooth="yes"/>
      <point x="401" y="44"/>
      <point x="362" y="1"/>
      <point x="310" y="0" type="curve"/>
      <point x="0" y="0" type="line"/>
    </contour>
  </outline>
</glyph>
<glyph name="narrowinitialbaa" format="1">
  <advance width="298"/>
  <outline>
    <contour>
      <point x="158" y="320" type="line"/>
      <point x="248" y="320" type="line"/>
      <point x="248" y="90" type="line" smooth="yes"/>
      <point x="248" y="42"/>
      <point x="206" y="0"/>
      <point x="158" y="0" type="curve" smooth="yes"/>
      <point x="0" y="0" type="line"/>
      <point x="0" y="90" type="line"/>
      <point x="158" y="90" type="line"/>
    </contour>
  </outline>
</glyph>
<glyph name="smallhamza" format="1">
  <advance width="0"/>
  <outline>
    <contour>
      <point x="82" y="160" type="line"/>
      <point x="82" y="95" type="line"/>
      <point x="32" y="94" type="line"/>
      <point x="54" y="46" type="line" smooth="yes"/>
      <point x="56" y="42"/>
      <point x="57" y="37"/>
      <point x="57" y="33" type="curve" smooth="yes"/>
      <point x="57" y="15"/>
      <point x="42" y="0"/>
      <point x="24" y="0" type="curve" smooth="yes"/>
      <point x="-82" y="0" type="line"/>
      <point x="-82" y="66" type="line"/>
      <point x="-27" y="66" type="line"/>
      <point x="-48" y="114" type="line" smooth="yes"/>
      <point x="-50" y="118"/>
      <point x="-51" y="123"/>
      <point x="-51" y="127" type="curve" smooth="yes"/>
      <point x="-51" y="145"/>
      <point x="-36" y="160"/>
      <point x="-18" y="160" type="curve" smooth="yes"/>
    </contour>
  </outline>
</glyph>
<glyph name="yehwezza" format="1">
  <advance width="609"/>
  <outline>
    <contour>
      <point x="366" y="-140" type="curve" smooth="yes"/>
      <point x="253" y="-138"/>
      <point x="146" y="-150"/>
      <point x="89" y="-85" type="curve" smooth="yes"/>
      <point x="68" y="-61"/>
      <point x="51" y="-24"/>
      <point x="51" y="15" type="curve" smooth="yes"/>
      <point x="50" y="183" type="line"/>
      <point x="140" y="183" type="line"/>
      <point x="141" y="18" type="line"/>
      <point x="143" y="-6"/>
      <point x="148" y="-17"/>
      <point x="155" y="-24" type="curve" smooth="yes"/>
      <point x="162" y="-32"/>
      <point x="172" y="-38"/>
      <point x="191" y="-42" type="curve" smooth="yes"/>
      <point x="228" y="-51"/>
      <point x="292" y="-49"/>
      <point x="366" y="-50" type="curve" smooth="yes"/>
      <point x="382" y="-50"/>
      <point x="395" y="-48"/>
      <point x="405" y="-47" type="curve"/>
      <point x="402" y="-44"/>
      <point x="399" y="-41"/>
      <point x="396" y="-38" type="curve" smooth="yes"/>
      <point x="375" y="-16"/>
      <point x="347" y="9"/>
      <point x="324" y="39" type="curve" smooth="yes"/>
      <point x="313" y="54"/>
      <point x="302" y="70"/>
      <point x="298" y="92" type="curve" smooth="yes"/>
      <point x="294" y="114"/>
      <point x="302" y="144"/>
      <point x="320" y="162" type="curve"/>
      <point x="320" y="163" type="line"/>
      <point x="370" y="210"/>
      <point x="426" y="251"/>
      <point x="490" y="255" type="curve" smooth="yes"/>
      <point x="494" y="255"/>
      <point x="498" y="255"/>
      <point x="502" y="255" type="curve" smooth="yes"/>
      <point x="531" y="254"/>
      <point x="562" y="240"/>
      <point x="581" y="215" type="curve" smooth="yes"/>
      <point x="605" y="183"/>
      <point x="609" y="142"/>
      <point x="609" y="90" type="curve" smooth="yes"/>
      <point x="609" y="0" type="line"/>
      <point x="562" y="0"/>
      <point x="521" y="40"/>
      <point x="520" y="87" type="curve"/>
      <point x="520" y="88" type="line"/>
      <point x="519" y="101" type="line"/>
      <point x="519" y="103" type="line"/>
      <point x="520" y="138"/>
      <point x="513" y="156"/>
      <point x="509" y="161" type="curve" smooth="yes"/>
      <point x="505" y="166"/>
      <point x="506" y="166"/>
      <point x="496" y="165" type="curve" smooth="yes"/>
      <point x="476" y="164"/>
      <point x="429" y="139"/>
      <point x="389" y="104" type="curve"/>
      <point x="391" y="101"/>
      <point x="392" y="98"/>
      <point x="395" y="94" type="curve" smooth="yes"/>
      <point x="418" y="65"/>
      <point x="469" y="21"/>
      <point x="494" y="-16" type="curve" smooth="yes"/>
      <point x="504" y="-31"/>
      <point x="515" y="-54"/>
      <point x="506" y="-81" type="curve" smooth="yes"/>
      <point x="497" y="-108"/>
      <point x="472" y="-123"/>
      <point x="450" y="-130" type="curve" smooth="yes"/>
      <point x="428" y="-137"/>
      <point x="400" y="-140"/>
    </contour>
  </outline>
</glyph>
